<?xml version="1.0" standalone="no"?>
<!DOCTYPE svg PUBLIC "-//W3C//DTD SVG 20010904//EN"
 "http://www.w3.org/TR/2001/REC-SVG-20010904/DTD/svg10.dtd">
<svg version="1.0" xmlns="http://www.w3.org/2000/svg"
 width="1769.000000pt" height="1769.000000pt" viewBox="0 0 1769.000000 1769.000000"
 preserveAspectRatio="xMidYMid meet">
<metadata>
Created by potrace 1.11, written by Peter Selinger 2001-2013
</metadata>
<g transform="translate(0.000000,1769.000000) scale(0.100000,-0.100000)"
fill="#000000" stroke="none">
<path d="M8459 17685 c-2 -1 -62 -6 -134 -10 -71 -3 -146 -8 -165 -10 -19 -2
-69 -6 -110 -9 -41 -4 -88 -8 -105 -10 -16 -2 -61 -7 -100 -11 -59 -5 -137
-15 -230 -30 -11 -1 -47 -6 -80 -10 -33 -4 -62 -9 -65 -10 -3 -2 -30 -6 -60
-10 -30 -3 -62 -8 -70 -10 -8 -3 -53 -11 -100 -20 -88 -15 -101 -18 -185 -35
-27 -6 -59 -12 -70 -14 -11 -3 -60 -14 -110 -26 -49 -12 -101 -24 -115 -26
-29 -6 -224 -57 -325 -85 -38 -11 -77 -22 -85 -24 -8 -2 -27 -8 -43 -14 -15
-6 -38 -13 -50 -15 -45 -9 -513 -169 -572 -196 -11 -5 -76 -31 -145 -59 -128
-50 -240 -98 -390 -166 -89 -41 -477 -236 -545 -274 -22 -13 -65 -37 -95 -54
-45 -24 -164 -95 -355 -210 -11 -7 -94 -61 -184 -121 -1152 -761 -2113 -1783
-2802 -2981 -112 -195 -399 -757 -399 -781 0 -3 -19 -47 -41 -98 -38 -85 -59
-134 -61 -146 -1 -3 -12 -30 -26 -60 -35 -80 -133 -345 -191 -516 -82 -245
-211 -710 -245 -884 -2 -14 -14 -68 -24 -120 -11 -52 -23 -108 -25 -125 -3
-16 -10 -55 -16 -85 -6 -30 -13 -71 -16 -90 -3 -19 -7 -46 -10 -60 -5 -29 -11
-66 -21 -135 -3 -27 -8 -59 -10 -70 -2 -11 -7 -42 -10 -70 -3 -27 -7 -61 -9
-75 -2 -14 -7 -54 -10 -90 -3 -36 -8 -76 -11 -90 -2 -14 -6 -59 -10 -100 -3
-41 -7 -97 -9 -125 -27 -332 -27 -1184 0 -1375 2 -14 6 -65 10 -114 4 -50 8
-97 10 -105 1 -9 6 -47 9 -86 4 -38 9 -81 11 -95 2 -14 7 -50 10 -80 3 -30 8
-64 10 -75 3 -11 7 -37 10 -57 10 -75 17 -115 36 -223 10 -60 21 -123 24 -140
24 -139 128 -576 189 -790 108 -383 286 -858 471 -1260 43 -95 213 -433 245
-490 24 -42 52 -92 96 -172 112 -204 398 -642 570 -873 277 -374 532 -669 863
-1000 223 -223 304 -297 506 -471 105 -90 301 -250 349 -284 16 -11 33 -24 40
-30 6 -5 34 -27 61 -47 28 -21 55 -42 61 -46 76 -64 660 -452 679 -452 2 0 24
-13 48 -30 25 -16 48 -30 51 -30 3 0 34 -17 68 -38 154 -94 475 -259 743 -382
71 -32 339 -146 365 -155 3 -1 19 -7 35 -14 49 -21 209 -82 225 -86 8 -2 74
-25 145 -50 111 -40 428 -140 475 -150 8 -2 65 -17 125 -33 126 -34 346 -88
390 -95 17 -3 75 -15 130 -27 55 -12 115 -24 133 -26 18 -2 41 -5 50 -8 9 -3
33 -8 52 -11 19 -3 60 -10 90 -15 30 -5 73 -12 95 -15 23 -3 50 -7 60 -9 11
-2 47 -7 80 -11 32 -3 62 -8 65 -10 3 -2 44 -7 90 -10 46 -4 87 -8 90 -10 3
-2 43 -6 90 -9 47 -4 99 -8 115 -10 115 -15 325 -21 765 -21 455 1 569 4 735
20 28 3 77 7 110 10 33 3 78 7 100 10 62 7 127 15 165 20 19 3 55 7 80 10 25
3 88 12 140 21 52 8 106 17 120 19 25 4 168 29 225 40 17 3 55 11 85 17 30 6
60 12 65 14 112 23 240 53 378 89 95 25 181 47 192 50 39 9 192 57 375 117
1003 329 1950 846 2805 1532 55 44 102 82 105 85 3 3 32 28 65 56 338 279 787
736 1095 1115 56 69 111 135 121 148 10 12 19 25 19 27 0 3 9 16 21 28 12 12
38 47 60 77 21 30 59 82 83 115 47 63 299 437 332 492 228 382 283 480 417
748 206 414 354 766 489 1175 34 102 63 190 64 195 2 6 21 73 44 150 37 127
112 414 124 475 2 14 14 70 26 125 12 55 24 109 26 120 9 44 63 353 69 395 3
25 8 56 10 70 2 14 7 45 10 70 4 25 8 59 10 75 3 17 7 55 10 85 3 30 7 64 9
75 2 11 7 56 10 100 4 44 9 96 11 115 28 251 28 1318 0 1520 -2 14 -6 61 -10
105 -3 44 -8 91 -10 105 -2 14 -6 50 -10 80 -13 115 -16 136 -20 160 -2 14 -7
45 -10 70 -9 68 -54 335 -71 420 -9 41 -18 86 -20 100 -33 181 -167 679 -251
935 -262 797 -631 1550 -1092 2225 -78 115 -277 391 -314 436 -9 10 -55 69
-103 129 -73 92 -184 225 -204 245 -3 3 -20 23 -39 45 -92 109 -214 238 -396
420 -218 219 -285 282 -450 425 -61 52 -112 97 -115 100 -36 38 -501 399 -542
421 -12 7 -29 18 -36 26 -18 17 -457 308 -532 352 -30 18 -93 54 -139 82 -46
27 -86 49 -88 49 -2 0 -20 10 -41 23 -188 118 -688 357 -1037 497 -246 99
-685 251 -795 275 -8 2 -44 12 -80 23 -116 36 -448 117 -599 147 -9 2 -50 10
-91 18 -41 9 -88 18 -105 21 -55 10 -210 36 -240 41 -217 32 -217 32 -290 40
-33 4 -71 9 -85 11 -14 2 -56 6 -95 9 -38 4 -81 8 -95 10 -14 2 -72 7 -130 10
-58 4 -127 9 -155 12 -58 5 -911 13 -916 8z"/>
</g>
</svg>
